<?xml version="1.0" encoding="UTF-8" standalone="no"?>
<!-- Created with Inkscape (http://www.inkscape.org/) -->

<svg
   xmlns:dc="http://purl.org/dc/elements/1.1/"
   xmlns:cc="http://creativecommons.org/ns#"
   xmlns:rdf="http://www.w3.org/1999/02/22-rdf-syntax-ns#"
   xmlns:svg="http://www.w3.org/2000/svg"
   xmlns="http://www.w3.org/2000/svg"
   xmlns:xlink="http://www.w3.org/1999/xlink"
   xmlns:sodipodi="http://sodipodi.sourceforge.net/DTD/sodipodi-0.dtd"
   xmlns:inkscape="http://www.inkscape.org/namespaces/inkscape"
   width="210mm"
   height="297mm"
   viewBox="0 0 210 297"
   version="1.1"
   id="svg4685"
   inkscape:version="0.92.3 (2405546, 2018-03-11)"
   sodipodi:docname="sit-inbox.svg">
  <sodipodi:namedview
     showborder="false"
     id="base"
     pagecolor="#ffffff"
     bordercolor="#666666"
     borderopacity="1.0"
     inkscape:pageopacity="0.0"
     inkscape:pageshadow="2"
     inkscape:zoom="0.7071068"
     inkscape:cx="-1060.5413"
     inkscape:cy="1574.4668"
     inkscape:document-units="mm"
     inkscape:current-layer="layer1"
     showgrid="false"
     inkscape:window-width="1918"
     inkscape:window-height="1038"
     inkscape:window-x="2048"
     inkscape:window-y="20"
     inkscape:window-maximized="1"
     inkscape:object-paths="true"
     inkscape:snap-intersection-paths="true"
     inkscape:snap-smooth-nodes="true"
     inkscape:snap-midpoints="true"
     inkscape:snap-center="true">
    <inkscape:grid
       empspacing="5"
       units="mm"
       id="grid882"
       type="axonomgrid" />
  </sodipodi:namedview>
  <defs
     id="defs4679">
    <linearGradient
       id="linearGradient7321"
       inkscape:collect="always">
      <stop
         id="stop7317"
         offset="0"
         style="stop-color:#ffd67c;stop-opacity:1;" />
      <stop
         id="stop7319"
         offset="1"
         style="stop-color:#ffd67c;stop-opacity:0;" />
    </linearGradient>
    <linearGradient
       inkscape:collect="always"
       xlink:href="#linearGradient7321"
       id="linearGradient1846"
       gradientUnits="userSpaceOnUse"
       gradientTransform="translate(-2110.7169,1378.2032)"
       x1="488.30142"
       y1="369.96457"
       x2="686.34814"
       y2="371.03366" />
    <filter
       x="0"
       y="0"
       width="1"
       height="1"
       color-interpolation-filters="sRGB"
       inkscape:menu-tooltip="Remove white line between adjacent edges"
       inkscape:menu="ABCs"
       inkscape:label="Stitch together"
       id="filter850">
      <feColorMatrix
         values="1 0 0 0 0 0 1 0 0 0 0 0 1 0 0 0 0 0 1.8 0 "
         id="feColorMatrix848" />
    </filter>
    <filter
       style="color-interpolation-filters:sRGB"
       x="0"
       y="0"
       width="1"
       height="1"
       inkscape:menu-tooltip="Remove white line between adjacent edges"
       inkscape:menu="ABCs"
       inkscape:label="Stitch together"
       id="filter850-3">
      <feColorMatrix
         values="1 0 0 0 0 0 1 0 0 0 0 0 1 0 0 0 0 0 1.8 0 "
         id="feColorMatrix848-6" />
    </filter>
    <filter
       style="color-interpolation-filters:sRGB"
       x="0"
       y="0"
       width="1"
       height="1"
       inkscape:menu-tooltip="Remove white line between adjacent edges"
       inkscape:menu="ABCs"
       inkscape:label="Stitch together"
       id="filter887">
      <feColorMatrix
         values="1 0 0 0 0 0 1 0 0 0 0 0 1 0 0 0 0 0 1.8 0 "
         id="feColorMatrix885" />
    </filter>
    <filter
       style="color-interpolation-filters:sRGB"
       x="0"
       y="0"
       width="1"
       height="1"
       inkscape:menu-tooltip="Remove white line between adjacent edges"
       inkscape:menu="ABCs"
       inkscape:label="Stitch together"
       id="filter891">
      <feColorMatrix
         values="1 0 0 0 0 0 1 0 0 0 0 0 1 0 0 0 0 0 1.8 0 "
         id="feColorMatrix889" />
    </filter>
    <filter
       style="color-interpolation-filters:sRGB"
       x="0"
       y="0"
       width="1"
       height="1"
       inkscape:menu-tooltip="Remove white line between adjacent edges"
       inkscape:menu="ABCs"
       inkscape:label="Stitch together"
       id="filter895">
      <feColorMatrix
         values="1 0 0 0 0 0 1 0 0 0 0 0 1 0 0 0 0 0 1.8 0 "
         id="feColorMatrix893" />
    </filter>
    <filter
       style="color-interpolation-filters:sRGB"
       x="0"
       y="0"
       width="1"
       height="1"
       inkscape:menu-tooltip="Remove white line between adjacent edges"
       inkscape:menu="ABCs"
       inkscape:label="Stitch together"
       id="filter899">
      <feColorMatrix
         values="1 0 0 0 0 0 1 0 0 0 0 0 1 0 0 0 0 0 1.8 0 "
         id="feColorMatrix897" />
    </filter>
    <linearGradient
       inkscape:collect="always"
       xlink:href="#linearGradient7321"
       id="linearGradient978"
       gradientUnits="userSpaceOnUse"
       gradientTransform="translate(-2110.7169,1378.2032)"
       x1="488.30142"
       y1="369.96457"
       x2="686.34814"
       y2="371.03366" />
  </defs>
  <metadata
     id="metadata4682">
    <rdf:RDF>
      <cc:Work
         rdf:about="">
        <dc:format>image/svg+xml</dc:format>
        <dc:type
           rdf:resource="http://purl.org/dc/dcmitype/StillImage" />
        <dc:title />
      </cc:Work>
    </rdf:RDF>
  </metadata>
  <g
     id="layer1"
     inkscape:groupmode="layer"
     inkscape:label="Layer 1">
    <g
       id="g1844"
       transform="translate(-225.73056,-340.83441)">
      <g
         inkscape:label="#g15175"
         inkscape:export-ydpi="96"
         inkscape:export-xdpi="96"
         id="g1842"
         transform="matrix(0.45,0,0,0.45,592.08643,-522.58048)">
        <path
           style="fill:url(#linearGradient1846);fill-opacity:1;stroke:none;stroke-width:0.8661347;stroke-miterlimit:4;stroke-dasharray:none;stroke-opacity:1"
           d="m -1668.6531,1700.0181 c 33.3333,0 66.6667,0 100,0 0,33.3333 0,66.6666 0,100 -33.3333,0 -66.6667,0 -100,0 0,-33.3334 0,-66.6667 0,-100 z"
           id="path1836"
           inkscape:connector-curvature="0"
           sodipodi:nodetypes="ccccc" />
        <path
           inkscape:connector-curvature="0"
           id="path1838"
           d="m -1662.5556,1706.1157 h 87.8049 v 87.8049 h -87.8049 z"
           style="fill:none;fill-opacity:1;stroke:#0a0a0a;stroke-width:2.195122;stroke-miterlimit:4;stroke-dasharray:none;stroke-opacity:1" />
        <path
           style="color:#000000;font-style:normal;font-variant:normal;font-weight:normal;font-stretch:normal;font-size:medium;line-height:normal;font-family:sans-serif;font-variant-ligatures:normal;font-variant-position:normal;font-variant-caps:normal;font-variant-numeric:normal;font-variant-alternates:normal;font-feature-settings:normal;text-indent:0;text-align:start;text-decoration:none;text-decoration-line:none;text-decoration-style:solid;text-decoration-color:#000000;letter-spacing:normal;word-spacing:normal;text-transform:none;writing-mode:lr-tb;direction:ltr;text-orientation:mixed;dominant-baseline:auto;baseline-shift:baseline;text-anchor:start;white-space:normal;shape-padding:0;clip-rule:nonzero;display:inline;overflow:visible;visibility:visible;opacity:1;isolation:auto;mix-blend-mode:normal;color-interpolation:sRGB;color-interpolation-filters:linearRGB;solid-color:#000000;solid-opacity:1;vector-effect:none;fill:#000000;fill-opacity:1;fill-rule:nonzero;stroke:none;stroke-width:7.39432049;stroke-linecap:butt;stroke-linejoin:miter;stroke-miterlimit:4;stroke-dasharray:none;stroke-dashoffset:0;stroke-opacity:1;color-rendering:auto;image-rendering:auto;shape-rendering:auto;text-rendering:auto;enable-background:accumulate"
           d="m -1636.0725,1734.3432 c -4.0253,-0.01 -8.049,1.5044 -11.0963,4.5516 -6.0946,6.0948 -6.0594,16.0962 0.045,22.2009 6.105,6.105 15.9887,5.9964 22.1435,0.1016 l 11.6869,-11.1931 v 0 0 0 0 l 6.0821,-5.825 c 3.3931,-3.2497 8.507,-3.3036 11.8005,-0.01 3.294,3.2939 3.2991,8.4895 0.045,11.7432 -1.6269,1.6269 -3.7393,2.4394 -5.8568,2.4331 -2.019,-0.01 -4.0373,-0.7654 -5.6488,-2.2629 l -4.5436,4.2346 -0.8247,0.8719 c 3.0404,2.9885 7.0232,4.494 11.006,4.504 4.0253,0.01 8.049,-1.5042 11.0964,-4.5515 6.0946,-6.0947 6.0594,-16.0963 -0.045,-22.2008 -6.105,-6.1051 -15.9886,-5.9966 -22.1435,-0.1017 l -11.6869,11.193 v 0 0 0 0 l -6.082,5.8249 c -3.3931,3.2498 -8.507,3.3037 -11.8005,0.01 -3.294,-3.2939 -3.2992,-8.4896 -0.045,-11.7433 1.6269,-1.6269 3.7393,-2.4394 5.8567,-2.4331 2.019,0.01 4.0373,0.7654 5.6489,2.2629 l 4.5435,-4.2346 0.8248,-0.8718 c -3.0404,-2.9886 -7.0232,-4.4941 -11.0061,-4.5041 z"
           id="path1840"
           inkscape:connector-curvature="0" />
      </g>
    </g>
    <g
       id="g873">
      <rect
         transform="matrix(0.86602531,0.50000017,-0.86602531,0.50000017,-194.65684,-185.36262)"
         y="56.90189"
         x="-136.57367"
         height="48.375771"
         width="48.776672"
         id="rect1286-0-4-0-10"
         style="opacity:1;fill:#000000;fill-opacity:1;stroke:none;stroke-width:5.06400013;stroke-miterlimit:4;stroke-dasharray:none;stroke-opacity:1;filter:url(#filter850)" />
      <rect
         y="193.47551"
         x="-150.33772"
         height="48.375984"
         width="13.764001"
         id="rect1288-2-9-6-3"
         style="opacity:1;fill:#2a3857;fill-opacity:1;stroke:none;stroke-width:5.04308796;stroke-miterlimit:4;stroke-dasharray:none;stroke-opacity:1;filter:url(#filter850)"
         transform="matrix(0,1,-0.86602531,0.50000017,-194.65684,-185.36262)" />
      <rect
         y="43.137936"
         x="-193.47551"
         height="13.764001"
         width="48.776653"
         id="rect1286-6-3-3-50-1-0"
         style="opacity:1;fill:#2a3857;fill-opacity:1;stroke:none;stroke-width:2.70117044;stroke-miterlimit:4;stroke-dasharray:none;stroke-opacity:1;filter:url(#filter850)"
         transform="matrix(0.86602531,0.50000017,0,1,-194.65684,-185.36262)" />
      <path
         inkscape:connector-curvature="0"
         id="rect1286-6-2-7-9-4"
         d="m -404.10613,-214.77439 v 13.764 l 42.24158,24.38824 v -13.76401 l -12.94708,-7.47501 a 12.24745,7.0710615 59.999913 0 1 -8.17371,2.00916 12.24745,7.0710615 59.999913 0 1 -8.17282,-11.44685 z"
         style="opacity:1;fill:#857373;fill-opacity:1;stroke:none;stroke-width:2.51372147;stroke-miterlimit:4;stroke-dasharray:none;stroke-opacity:1;filter:url(#filter850)" />
      <rect
         y="144.69884"
         x="-101.56104"
         height="48.375984"
         width="13.764001"
         id="rect1288-3-8-2-1-44"
         style="opacity:1;fill:#855b5c;fill-opacity:1;stroke:none;stroke-width:5.04308796;stroke-miterlimit:4;stroke-dasharray:none;stroke-opacity:1;filter:url(#filter850)"
         transform="matrix(0,1,-0.86602531,0.50000017,-194.65684,-185.36262)" />
    </g>
    <g
       id="g1036"
       transform="translate(-19.58261,-17.563415)">
      <rect
         transform="matrix(0.86602531,0.50000017,-0.86602531,0.50000017,-175.07423,-97.5213)"
         y="56.90189"
         x="-136.57367"
         height="48.375771"
         width="48.776672"
         id="rect1286-0-4-0-10-5"
         style="opacity:1;fill:#000000;fill-opacity:1;stroke:none;stroke-width:5.06400013;stroke-miterlimit:4;stroke-dasharray:none;stroke-opacity:1;filter:url(#filter850-3)" />
      <rect
         y="193.47551"
         x="-150.33772"
         height="48.375984"
         width="13.764001"
         id="rect1288-2-9-6-3-3"
         style="opacity:1;fill:#2a3857;fill-opacity:1;stroke:none;stroke-width:5.04308796;stroke-miterlimit:4;stroke-dasharray:none;stroke-opacity:1;filter:url(#filter850-3)"
         transform="matrix(0,1,-0.86602531,0.50000017,-175.07423,-97.5213)" />
      <rect
         y="43.137936"
         x="-193.47551"
         height="13.764001"
         width="48.776653"
         id="rect1286-6-3-3-50-1-0-5"
         style="opacity:1;fill:#2a3857;fill-opacity:1;stroke:none;stroke-width:2.70117044;stroke-miterlimit:4;stroke-dasharray:none;stroke-opacity:1;filter:url(#filter850-3)"
         transform="matrix(0.86602531,0.50000017,0,1,-175.07423,-97.5213)" />
      <g
         inkscape:label="#g15175"
         inkscape:export-ydpi="96"
         inkscape:export-xdpi="96"
         id="g1411-7-0"
         transform="matrix(0.34641,0.1999998,-0.34641,0.1999998,824.31247,-143.63023)">
        <path
           style="fill:url(#linearGradient978);fill-opacity:1;stroke:none;stroke-width:0.8661347;stroke-miterlimit:4;stroke-dasharray:none;stroke-opacity:1"
           d="m -1668.6531,1700.0181 c 33.3333,0 66.6667,0 100,0 0,33.3333 0,66.6666 0,100 -33.3333,0 -66.6667,0 -100,0 0,-33.3334 0,-66.6667 0,-100 z"
           id="path1405-1-9"
           inkscape:connector-curvature="0"
           sodipodi:nodetypes="ccccc" />
        <path
           inkscape:connector-curvature="0"
           id="path1407-7-3"
           d="m -1662.5556,1706.1157 h 87.8049 v 87.8049 h -87.8049 z"
           style="fill:none;fill-opacity:1;stroke:#0a0a0a;stroke-width:2.195122;stroke-miterlimit:4;stroke-dasharray:none;stroke-opacity:1" />
        <path
           style="color:#000000;font-style:normal;font-variant:normal;font-weight:normal;font-stretch:normal;font-size:medium;line-height:normal;font-family:sans-serif;font-variant-ligatures:normal;font-variant-position:normal;font-variant-caps:normal;font-variant-numeric:normal;font-variant-alternates:normal;font-feature-settings:normal;text-indent:0;text-align:start;text-decoration:none;text-decoration-line:none;text-decoration-style:solid;text-decoration-color:#000000;letter-spacing:normal;word-spacing:normal;text-transform:none;writing-mode:lr-tb;direction:ltr;text-orientation:mixed;dominant-baseline:auto;baseline-shift:baseline;text-anchor:start;white-space:normal;shape-padding:0;clip-rule:nonzero;display:inline;overflow:visible;visibility:visible;opacity:1;isolation:auto;mix-blend-mode:normal;color-interpolation:sRGB;color-interpolation-filters:linearRGB;solid-color:#000000;solid-opacity:1;vector-effect:none;fill:#000000;fill-opacity:1;fill-rule:nonzero;stroke:none;stroke-width:7.39432049;stroke-linecap:butt;stroke-linejoin:miter;stroke-miterlimit:4;stroke-dasharray:none;stroke-dashoffset:0;stroke-opacity:1;color-rendering:auto;image-rendering:auto;shape-rendering:auto;text-rendering:auto;enable-background:accumulate"
           d="m -1636.0725,1734.3432 c -4.0253,-0.01 -8.049,1.5044 -11.0963,4.5516 -6.0946,6.0948 -6.0594,16.0962 0.045,22.2009 6.105,6.105 15.9887,5.9964 22.1435,0.1016 l 11.6869,-11.1931 v 0 0 0 0 l 6.0821,-5.825 c 3.3931,-3.2497 8.507,-3.3036 11.8005,-0.01 3.294,3.2939 3.2991,8.4895 0.045,11.7432 -1.6269,1.6269 -3.7393,2.4394 -5.8568,2.4331 -2.019,-0.01 -4.0373,-0.7654 -5.6488,-2.2629 l -4.5436,4.2346 -0.8247,0.8719 c 3.0404,2.9885 7.0232,4.494 11.006,4.504 4.0253,0.01 8.049,-1.5042 11.0964,-4.5515 6.0946,-6.0947 6.0594,-16.0963 -0.045,-22.2008 -6.105,-6.1051 -15.9886,-5.9966 -22.1435,-0.1017 l -11.6869,11.193 v 0 0 0 0 l -6.082,5.8249 c -3.3931,3.2498 -8.507,3.3037 -11.8005,0.01 -3.294,-3.2939 -3.2992,-8.4896 -0.045,-11.7433 1.6269,-1.6269 3.7393,-2.4394 5.8567,-2.4331 2.019,0.01 4.0373,0.7654 5.6489,2.2629 l 4.5435,-4.2346 0.8248,-0.8718 c -3.0404,-2.9886 -7.0232,-4.4941 -11.0061,-4.5041 z"
           id="path1409-2-6"
           inkscape:connector-curvature="0" />
      </g>
      <path
         inkscape:connector-curvature="0"
         id="rect1286-6-2-7-9-4-6"
         d="m -384.52352,-126.93307 v 13.764 l 42.24158,24.38824 v -13.76401 l -12.94709,-7.47501 a 12.24745,7.0710615 59.999913 0 1 -8.17371,2.00916 12.24745,7.0710615 59.999913 0 1 -8.17282,-11.44685 z"
         style="opacity:1;fill:#857373;fill-opacity:1;stroke:none;stroke-width:2.51372147;stroke-miterlimit:4;stroke-dasharray:none;stroke-opacity:1;filter:url(#filter850-3)" />
      <rect
         y="144.69884"
         x="-101.56104"
         height="48.375984"
         width="13.764001"
         id="rect1288-3-8-2-1-44-2"
         style="opacity:1;fill:#855b5c;fill-opacity:1;stroke:none;stroke-width:5.04308796;stroke-miterlimit:4;stroke-dasharray:none;stroke-opacity:1;filter:url(#filter850-3)"
         transform="matrix(0,1,-0.86602531,0.50000017,-175.07423,-97.5213)" />
    </g>
  </g>
</svg>
